<svg xmlns="http://www.w3.org/2000/svg" version="1.1" xmlns:xlink="http://www.w3.org/1999/xlink" xmlns:svgjs="http://svgjs.dev/svgjs" width="1500" height="939" viewBox="0 0 1500 939"><g transform="matrix(1,0,0,1,-0.9090909090909918,-1.5145161290323017)"><svg viewBox="0 0 396 248" data-background-color="#463746" preserveAspectRatio="xMidYMid meet" height="939" width="1500" xmlns="http://www.w3.org/2000/svg" xmlns:xlink="http://www.w3.org/1999/xlink"><g id="tight-bounds" transform="matrix(1,0,0,1,0.2400000000000091,0.4000000000000057)"><svg viewBox="0 0 395.52 247.2" height="247.2" width="395.52"><g><svg></svg></g><g><svg viewBox="0 0 395.52 247.2" height="247.2" width="395.52"><g transform="matrix(1,0,0,1,75.54432,101.59082801144702)"><svg viewBox="0 0 244.43135999999998 44.01834397710596" height="44.01834397710596" width="244.43135999999998"><g><svg viewBox="0 0 244.43135999999998 44.01834397710596" height="44.01834397710596" width="244.43135999999998"><g><svg viewBox="0 0 244.43135999999998 44.01834397710596" height="44.01834397710596" width="244.43135999999998"><g><svg viewBox="0 0 244.43135999999998 44.01834397710596" height="44.01834397710596" width="244.43135999999998"><g id="textblocktransform"><svg viewBox="0 0 244.43135999999998 44.01834397710596" height="44.01834397710596" width="244.43135999999998" id="textblock"><g><svg viewBox="0 0 244.43135999999998 44.01834397710596" height="44.01834397710596" width="244.43135999999998"><g transform="matrix(1,0,0,1,0,0)"><svg width="244.43135999999998" viewBox="2.48 -34.93 262.76688311567494 47.33" height="44.01834397710596" data-palette-color="#ffffff"><path d="M16.18 0.65L16.18 0.65Q11.95 0.65 8.89-1.41 5.83-3.48 4.15-7.24 2.48-11 2.48-16.07L2.48-16.07Q2.48-21.43 4.25-25.06 6.03-28.7 9.14-30.56 12.25-32.43 16.18-32.43L16.18-32.43Q21.45-32.43 24.58-29.81 27.7-27.2 28.73-23.03L28.73-23.03 23.65-22.05Q22.75-24.83 20.8-26.49 18.85-28.15 16.18-28.15L16.18-28.15Q13.83-28.15 11.88-26.8 9.93-25.45 8.75-22.76 7.58-20.08 7.58-16.07L7.58-16.07Q7.58-12.38 8.55-9.59 9.53-6.8 11.43-5.25 13.33-3.7 16.18-3.7L16.18-3.7Q19.65-3.7 21.65-5.56 23.65-7.43 23.65-10.43L23.65-10.43 28.78-10.43Q28.78-6.93 27.21-4.46 25.65-2 22.83-0.68 20 0.65 16.18 0.65ZM45 0.65L45 0.65Q41.72 0.65 39.14-0.78 36.55-2.2 35.05-5.03 33.55-7.85 33.55-12L33.55-12Q33.55-16.23 35.05-19.04 36.55-21.85 39.14-23.28 41.72-24.7 45-24.7L45-24.7Q48.22-24.7 50.8-23.28 53.37-21.85 54.86-19.04 56.35-16.23 56.35-12L56.35-12Q56.35-7.85 54.86-5.03 53.37-2.2 50.8-0.78 48.22 0.65 45 0.65ZM44.85-3.5L44.85-3.5Q46.92-3.5 48.44-4.5 49.95-5.5 50.76-7.41 51.57-9.33 51.57-12L51.57-12Q51.57-16.1 49.91-18.35 48.25-20.6 45.12-20.6L45.12-20.6Q43.02-20.6 41.51-19.59 40-18.57 39.19-16.66 38.37-14.75 38.37-12L38.37-12Q38.37-7.98 40.05-5.74 41.72-3.5 44.85-3.5ZM66.45-29.18L66.45-29.18Q65.02-29.18 64.21-29.96 63.4-30.75 63.4-32.1L63.4-32.1Q63.4-33.4 64.21-34.16 65.02-34.93 66.45-34.93L66.45-34.93Q67.85-34.93 68.66-34.16 69.47-33.4 69.47-32.1L69.47-32.1Q69.47-30.75 68.66-29.96 67.85-29.18 66.45-29.18ZM68.82 0L64.07 0 64.07-24.13 68.82-24.13 68.82 0ZM100.82 0L96.09 0 96.09-14.1Q96.09-17.23 94.61-18.84 93.12-20.45 90.59-20.45L90.59-20.45Q88.59-20.45 87.11-19.36 85.62-18.28 84.81-16.19 83.99-14.1 83.99-11.1L83.99-11.1 82.29-11.1Q82.29-15.53 83.43-18.55 84.57-21.58 86.69-23.14 88.82-24.7 91.79-24.7L91.79-24.7Q94.69-24.7 96.71-23.4 98.72-22.1 99.77-19.71 100.82-17.32 100.82-14.1L100.82-14.1 100.82 0ZM83.99 0L79.24 0 79.24-24.05 83.37-24.05 83.99-18.85 83.99 0ZM134.39 0L122.04 0 122.04-31.85 134.36-31.85Q137.94-31.85 140.3-30.7 142.66-29.55 143.84-27.65 145.01-25.75 145.01-23.48L145.01-23.48Q145.01-20.75 143.5-18.78 141.99-16.8 139.09-16.05L139.09-16.05Q140.99-15.73 142.44-14.69 143.89-13.65 144.73-12.13 145.56-10.6 145.56-8.75L145.56-8.75Q145.56-7.18 145.01-5.63 144.46-4.08 143.19-2.8 141.91-1.53 139.76-0.76 137.61 0 134.39 0L134.39 0ZM126.79-13.83L126.79-4.15 134.29-4.15Q137.54-4.15 139-5.5 140.46-6.85 140.46-9L140.46-9Q140.46-11.18 138.91-12.5 137.36-13.83 134.29-13.83L134.29-13.83 126.79-13.83ZM134.24-27.75L126.79-27.75 126.79-17.95 134.19-17.95Q136.96-17.95 138.55-19.28 140.14-20.6 140.14-22.95L140.14-22.95Q140.14-25.18 138.6-26.46 137.06-27.75 134.24-27.75L134.24-27.75ZM158.44 0L153.69 0 153.69-24.13 158.44-24.13 158.44 0ZM158.44-10.75L157.13-10.75Q157.13-15.38 158.1-18.44 159.06-21.5 160.8-23 162.53-24.5 164.88-24.5L164.88-24.5Q165.59-24.5 166.2-24.4 166.81-24.3 167.41-24.13L167.41-24.13 167.24-19.4Q166.56-19.58 165.77-19.71 164.99-19.85 164.34-19.85L164.34-19.85Q162.28-19.85 160.99-18.76 159.69-17.68 159.06-15.64 158.44-13.6 158.44-10.75L158.44-10.75ZM175.16-29.18L175.16-29.18Q173.73-29.18 172.92-29.96 172.11-30.75 172.11-32.1L172.11-32.1Q172.11-33.4 172.92-34.16 173.73-34.93 175.16-34.93L175.16-34.93Q176.56-34.93 177.37-34.16 178.18-33.4 178.18-32.1L178.18-32.1Q178.18-30.75 177.37-29.96 176.56-29.18 175.16-29.18ZM177.53 0L172.78 0 172.78-24.13 177.53-24.13 177.53 0ZM196.68 0.65L196.68 0.65Q193.73 0.65 191.26-0.94 188.78-2.53 187.32-5.39 185.86-8.25 185.86-12.13L185.86-12.13Q185.86-15.98 187.29-18.8 188.73-21.63 191.11-23.16 193.48-24.7 196.38-24.7L196.38-24.7Q199.03-24.7 201.01-23.41 202.98-22.13 204.07-19.68 205.16-17.23 205.16-13.7L205.16-13.7 203.51-13.7Q203.51-15.88 202.63-17.39 201.76-18.9 200.36-19.68 198.96-20.45 197.36-20.45L197.36-20.45Q195.48-20.45 193.97-19.44 192.46-18.43 191.57-16.56 190.68-14.7 190.68-12.13L190.68-12.13Q190.68-9.53 191.57-7.61 192.46-5.7 193.97-4.67 195.48-3.65 197.33-3.65L197.33-3.65Q198.86-3.65 200.27-4.46 201.68-5.28 202.59-6.8 203.51-8.33 203.51-10.43L203.51-10.43 205.16-10.43Q205.16-6.83 204.02-4.35 202.88-1.88 200.96-0.61 199.03 0.65 196.68 0.65ZM208.28 0L204.33 0 203.51-5.78 203.51-34.18 208.28-34.18 208.28 0ZM226.88 12.4L226.88 12.4Q222.98 12.4 220.17 11.33 217.35 10.25 215.83 8.45 214.3 6.65 214.3 4.53L214.3 4.53Q214.3 1.83 216.28 0.39 218.25-1.05 221.3-1.05L221.3-1.05 224.38 0.4Q221.78 0.4 220.37 1.45 218.95 2.5 218.95 4.3L218.95 4.3Q218.95 6.18 221 7.39 223.05 8.6 226.88 8.6L226.88 8.6Q229.65 8.6 231.75 7.79 233.85 6.98 235 5.66 236.15 4.35 236.15 2.85L236.15 2.85Q236.15 1.83 235.42 1.11 234.68 0.4 233.18 0.4L233.18 0.4 224.38 0.4Q221.93 0.4 220.07-0.36 218.2-1.13 217.15-2.38 216.1-3.63 216.1-5.15L216.1-5.15Q216.1-6.65 216.95-7.74 217.8-8.83 219.2-9.39 220.6-9.95 222.28-9.95L222.28-9.95 223.35-8.3Q222.63-8.3 221.9-7.99 221.18-7.68 220.7-7.05 220.23-6.43 220.23-5.5L220.23-5.5Q220.23-4.42 221.14-3.71 222.05-3 224.38-3L224.38-3 233.18-3Q236.78-3 238.83-1.58 240.88-0.15 240.88 2.58L240.88 2.58Q240.88 5.05 239.18 7.3 237.48 9.55 234.34 10.98 231.2 12.4 226.88 12.4ZM227.4-7.23L227.4-7.23Q224.6-7.23 222.32-8.31 220.03-9.4 218.68-11.36 217.33-13.33 217.33-15.95L217.33-15.95Q217.33-18.6 218.68-20.56 220.03-22.53 222.32-23.61 224.6-24.7 227.4-24.7L227.4-24.7Q230.13-24.7 232.39-23.61 234.65-22.53 236.02-20.56 237.38-18.6 237.38-15.95L237.38-15.95Q237.38-13.33 236.02-11.36 234.65-9.4 232.39-8.31 230.13-7.23 227.4-7.23ZM227.4-10.58L227.4-10.58Q229.98-10.58 231.34-12.11 232.7-13.65 232.7-15.95L232.7-15.95Q232.7-18.35 231.34-19.83 229.98-21.3 227.4-21.3L227.4-21.3Q224.88-21.3 223.47-19.83 222.05-18.35 222.05-15.95L222.05-15.95Q222.05-13.65 223.47-12.11 224.88-10.58 227.4-10.58ZM235.58-20.85L235.58-20.85 233.35-21.93Q233.35-24.08 234.25-25.68 235.15-27.28 236.75-28.18 238.35-29.08 240.43-29.08L240.43-29.08 240.13-24.45Q237.9-24.45 236.74-23.58 235.58-22.7 235.58-20.85ZM255.25 0.65L255.25 0.65Q252.15 0.65 249.65-0.95 247.15-2.55 245.69-5.4 244.23-8.25 244.23-12L244.23-12Q244.23-15.98 245.68-18.81 247.13-21.65 249.63-23.18 252.13-24.7 255.25-24.7L255.25-24.7Q258.05-24.7 260.05-23.56 262.05-22.43 263.28-20.51 264.5-18.6 264.96-16.18 265.43-13.75 265.13-11.18L265.13-11.18 248.03-11.18 248.03-13.93 261.88-13.93 260.73-13.18Q260.8-14.53 260.59-15.88 260.38-17.23 259.78-18.36 259.18-19.5 258.09-20.19 257-20.88 255.33-20.88L255.33-20.88Q253.23-20.88 251.81-19.83 250.4-18.78 249.68-17.01 248.95-15.25 248.95-13.15L248.95-13.15 248.95-11.23Q248.95-8.9 249.65-7.1 250.35-5.3 251.74-4.26 253.13-3.23 255.25-3.23L255.25-3.23Q257.33-3.23 258.69-4.2 260.05-5.18 260.38-7.13L260.38-7.13 265.23-7.13Q264.85-4.78 263.5-3.03 262.15-1.28 260.04-0.31 257.93 0.65 255.25 0.65Z" opacity="1" transform="matrix(1,0,0,1,0,0)" fill="#ffffff" class="wordmark-text-0" data-fill-palette-color="primary" id="text-0"></path></svg></g></svg></g></svg></g></svg></g></svg></g></svg></g></svg></g><g><path d="M245.816 0c68.262 0 123.6 55.338 123.6 123.6 0 68.262-55.338 123.6-123.6 123.6-58.915 0-108.203-41.221-120.597-96.395h2.036c12.355 54.069 60.747 94.41 118.561 94.41 67.166 0 121.615-54.449 121.615-121.615 0-67.166-54.449-121.615-121.615-121.615-57.814 0-106.205 40.341-118.561 94.41l-2.036 0c12.393-55.174 61.681-96.395 120.597-96.395z" fill="#eaa79c" stroke="transparent" data-fill-palette-color="tertiary"></path></g></svg></g><defs></defs></svg><rect width="395.52" height="247.2" fill="none" stroke="none" visibility="hidden"></rect></g></svg></g></svg>